<svg xmlns="http://www.w3.org/2000/svg" xmlns:xlink="http://www.w3.org/1999/xlink" width="500" zoomAndPan="magnify" viewBox="0 0 375 374.999991" height="500" preserveAspectRatio="xMidYMid meet" version="1.0"><defs><g/></defs><g fill="#ffffff" fill-opacity="1"><g transform="translate(15.850916, 237.275992)"><g><path d="M 142.589844 -152.804688 C 120.9375 -150.644531 88.402344 -143.03125 60.664062 -133.792969 C 60.851562 -134.976562 61.027344 -136.300781 61.230469 -137.335938 C 61.382812 -138.953125 60.246094 -140.308594 58.777344 -140.472656 C 57.148438 -140.769531 55.789062 -139.632812 55.625 -138.164062 C 55.367188 -136.101562 55.109375 -134.042969 54.730469 -131.679688 C 31.410156 -123.550781 4.917969 -111.65625 2.355469 -99.207031 C 1.5 -95.636719 2.378906 -90.472656 10.34375 -85.917969 C 10.960938 -85.535156 11.40625 -85.425781 11.984375 -85.476562 C 12.851562 -85.550781 13.679688 -86.0625 14.183594 -86.976562 C 14.953125 -88.207031 14.511719 -89.917969 13.136719 -90.671875 C 7.007812 -94.21875 7.492188 -97.027344 7.695312 -98.066406 C 9.464844 -106.226562 28.972656 -116.351562 53.808594 -125.484375 C 52.0625 -113.6875 49.644531 -99.503906 47.125 -84.871094 C 44.777344 -71.566406 42.484375 -57.683594 40.308594 -44.101562 C 21.957031 -37.417969 6.523438 -30.699219 3.078125 -26.761719 C 2.152344 -25.664062 2.15625 -23.917969 3.414062 -22.859375 C 3.898438 -22.320312 4.789062 -22.105469 5.511719 -22.167969 C 6.089844 -22.21875 6.785156 -22.570312 7.316406 -23.199219 C 9.175781 -25.25 19.785156 -30.535156 39.253906 -37.75 C 34.464844 -7.199219 30.828125 21.507812 32 38.441406 C 32.652344 47.699219 35.441406 52.992188 40.382812 54.605469 C 41.734375 55.070312 43.046875 55.101562 44.492188 54.976562 C 56.488281 53.941406 73.910156 34.820312 93.632812 12.007812 C 95.085938 10.28125 96.550781 8.699219 97.738281 7.285156 L 99.984375 4.617188 C 100.523438 4.132812 101.039062 3.359375 101.710938 2.722656 C 101.882812 2.996094 102.039062 3.128906 102.195312 3.261719 C 103.570312 4.015625 105.28125 3.578125 106.046875 2.347656 C 111.035156 -5.65625 112.953125 -8.730469 110.308594 -10.6875 C 107.964844 -12.523438 105.566406 -9.988281 103.042969 -7.148438 C 101.050781 -4.9375 98.53125 -2.101562 95.742188 1.050781 L 93.632812 3.5625 C 92.3125 5.132812 90.847656 6.714844 89.382812 8.296875 C 76.152344 23.707031 51.554688 52.476562 42.113281 49.359375 C 38.96875 48.320312 37.890625 42.589844 37.648438 38.097656 C 36.476562 21.164062 40.292969 -8.867188 45.316406 -40.019531 C 48.566406 -41.171875 51.949219 -42.484375 55.628906 -43.675781 C 80.082031 -52.191406 102.960938 -58.679688 108.769531 -58.890625 C 110.371094 -58.882812 111.570312 -60.152344 111.433594 -61.742188 C 111.441406 -63.34375 110.171875 -64.542969 108.582031 -64.40625 C 101.609375 -64.242188 72.363281 -55.601562 46.226562 -46.359375 C 48.332031 -59.058594 50.570312 -71.921875 52.597656 -83.886719 C 55.292969 -99.84375 57.910156 -115.066406 59.753906 -127.453125 C 87.597656 -137.136719 120.703125 -144.945312 143.222656 -147.183594 C 144.667969 -147.304688 145.855469 -148.71875 145.71875 -150.308594 C 145.59375 -151.753906 144.191406 -152.796875 142.589844 -152.804688 Z M 142.589844 -152.804688 "/></g></g></g><g fill="#ffffff" fill-opacity="1"><g transform="translate(138.398558, 226.696287)"><g><path d="M 60.621094 -38.136719 C 59.113281 -38.734375 57.429688 -38.007812 56.976562 -36.511719 C 43.378906 -0.105469 29.171875 19.175781 25.652344 18.894531 C 25.351562 18.777344 19.871094 14.300781 31.871094 -37.257812 C 32.191406 -38.59375 32.941406 -41.714844 30.492188 -43.105469 C 28.175781 -44.652344 25.855469 -42.851562 22.046875 -39.757812 C 17.949219 -36.636719 12.359375 -32.222656 7.683594 -32.402344 C 20.230469 -59.109375 18.296875 -64.621094 14.789062 -66.5 C 9.324219 -69.085938 2.570312 -59.621094 -0.460938 -54.265625 C -6.59375 -42.671875 -5.589844 -32.710938 2.359375 -28.304688 C 10.480469 -23.617188 19.890625 -30.980469 25.480469 -35.394531 C 25.613281 -35.550781 25.613281 -35.550781 25.746094 -35.707031 C 21.644531 -17.445312 19.238281 -3.117188 18.773438 6.679688 C 18.109375 17.507812 19.75 23.046875 23.933594 24.285156 C 24.671875 24.367188 25.261719 24.460938 25.984375 24.398438 C 37.542969 23.402344 54.5625 -13.882812 62.246094 -34.492188 C 62.699219 -35.988281 61.972656 -37.671875 60.621094 -38.136719 Z M 1.378906 -43.066406 C 2.726562 -51.046875 8.894531 -58.859375 11.78125 -60.855469 C 11.691406 -58.519531 10.664062 -51.878906 2.796875 -35.039062 C 1.648438 -36.539062 0.714844 -38.933594 1.378906 -43.066406 Z M 1.378906 -43.066406 "/></g></g></g><g fill="#ffffff" fill-opacity="1"><g transform="translate(196.059533, 221.718337)"><g><path d="M 51.289062 -125.996094 C 50.203125 -126.777344 48.878906 -126.953125 47.601562 -126.550781 C 41.5625 -123.992188 33.042969 -92.828125 26.640625 -42.191406 C 26.425781 -41.300781 26.054688 -40.539062 25.695312 -39.636719 C 24.488281 -45.207031 20.59375 -46.472656 19.253906 -46.796875 C 12.878906 -48.136719 3.539062 -41.652344 -2.007812 -26.617188 C -6.273438 -15.328125 -6.0625 -1.078125 0.765625 2.117188 C 4.105469 3.722656 9.574219 2.957031 16.523438 -9.289062 C 19.566406 -14.5 22.191406 -19.53125 24.683594 -24.40625 C 23.804688 -16.03125 22.960938 -7.222656 22.304688 2.003906 C 20.953125 18.429688 20.105469 32.1875 19.796875 42.113281 C 19.144531 61.535156 20.523438 64.035156 23.488281 64.652344 C 23.789062 64.773438 24.222656 64.734375 24.511719 64.710938 C 27.113281 64.484375 28.5625 61.011719 29.242188 58.769531 C 29.851562 57.40625 29.125 55.722656 27.628906 55.269531 C 26.871094 54.898438 26.003906 54.972656 25.304688 55.324219 C 25.058594 49.085938 25.28125 34.796875 27.882812 2.542969 C 29.109375 -13.578125 30.632812 -27.976562 32.164062 -40.628906 C 41.230469 -62.085938 45.222656 -79.902344 48.519531 -94.019531 C 48.945312 -95.800781 49.386719 -97.441406 49.695312 -98.925781 C 55.371094 -122.5625 52.246094 -125.058594 51.289062 -125.996094 Z M 11.625 -12.070312 C 6.820312 -3.644531 3.847656 -2.660156 3.097656 -2.886719 C 0.820312 -4 -0.765625 -13.910156 3.25 -24.738281 C 7.265625 -35.570312 13.488281 -41.054688 17.101562 -41.367188 C 17.535156 -41.40625 17.824219 -41.429688 18.125 -41.3125 C 20.488281 -40.933594 20.417969 -36.703125 20.371094 -35.535156 C 20.339844 -34.222656 21.175781 -32.984375 22.511719 -32.664062 C 19.4375 -26.136719 15.808594 -19.273438 11.625 -12.070312 Z M 44.34375 -100.210938 C 43.890625 -98.714844 43.449219 -97.074219 43.164062 -95.304688 C 41.238281 -87.273438 39.109375 -78.210938 36.066406 -67.902344 C 40.066406 -92.414062 44.261719 -107.917969 47.082031 -115.734375 C 46.800781 -112.214844 45.925781 -107.1875 44.34375 -100.210938 Z M 44.34375 -100.210938 "/></g></g></g><g fill="#ffffff" fill-opacity="1"><g transform="translate(241.292333, 217.813328)"><g><path d="M 46.0625 -36.445312 C 44.6875 -37.199219 42.980469 -36.757812 42.222656 -35.382812 C 32.695312 -19.273438 24.703125 -8.976562 16.570312 -2.011719 C 12.496094 1.394531 8.355469 2.335938 5.433594 0.550781 C 3.589844 -0.601562 -2.257812 -5.917969 2.210938 -26.6875 C 15.230469 -39.460938 21.941406 -51.105469 19.417969 -56.710938 C 18.546875 -58.382812 16.710938 -59.386719 14.832031 -59.226562 C 9.066406 -58.582031 1.109375 -47.851562 -3.0625 -28.707031 C -8.160156 -5.121094 -1.652344 2.761719 2.640625 5.304688 C 4.800781 6.71875 7.175781 7.242188 9.777344 7.019531 C 13.101562 6.730469 16.746094 5.105469 20.136719 2.191406 C 28.808594 -5.253906 37.066406 -15.867188 46.976562 -32.589844 C 47.734375 -33.96875 47.292969 -35.675781 46.0625 -36.445312 Z M 14.199219 -53.054688 C 13.824219 -50.695312 11.765625 -45.859375 5.570312 -38.335938 C 8.605469 -47.039062 12.300781 -51.4375 14.199219 -53.054688 Z M 14.199219 -53.054688 "/></g></g></g><g fill="#ffffff" fill-opacity="1"><g transform="translate(283.34584, 214.182791)"><g><path d="M 78.722656 -39.261719 C 77.480469 -40.175781 75.613281 -39.867188 74.703125 -38.625 C 64.3125 -24.042969 56.808594 -19.898438 53.230469 -20.902344 C 50.09375 -21.796875 47.859375 -27.425781 47.21875 -36.542969 C 47.082031 -38.132812 46.890625 -42.046875 43.648438 -42.496094 C 39.960938 -43.050781 37.722656 -38.636719 31.445312 -21.933594 C 30.382812 -19.074219 29.4375 -16.519531 28.839844 -15.011719 C 28.113281 -13.347656 27.609375 -12.429688 27.210938 -11.957031 C 26.363281 -13.339844 25.027344 -17.011719 24.6875 -22.660156 C 24.4375 -25.550781 24.226562 -28.007812 24.195312 -30.042969 C 23.789062 -36.414062 23.734375 -38.738281 21.046875 -39.523438 C 18.671875 -40.046875 17.269531 -37.742188 16.898438 -36.984375 C 11.289062 -27.761719 6.414062 -18.460938 1.410156 -7.253906 C 2.863281 -17.425781 5.820312 -32.09375 10.128906 -44.550781 C 10.582031 -46.046875 9.855469 -47.730469 8.359375 -48.183594 C 6.867188 -48.636719 5.328125 -47.921875 4.726562 -46.414062 C 1.492188 -36.671875 -1.519531 -24.328125 -3.53125 -12.214844 C -6.652344 7.269531 -4.699219 7.976562 -2.890625 8.695312 C -2.441406 8.800781 -1.996094 8.90625 -1.5625 8.871094 C -0.117188 8.746094 1.09375 7.621094 2.0625 5.355469 C 7.851562 -8.539062 12.785156 -18.867188 18.597656 -29.121094 C 18.769531 -27.097656 18.828125 -24.773438 19.050781 -22.171875 C 19.4375 -17.691406 20.9375 -7.050781 26.410156 -6.066406 C 30.832031 -5.429688 33.117188 -11.011719 33.980469 -12.832031 C 34.710938 -14.5 35.652344 -17.054688 36.71875 -19.914062 C 38.019531 -23.375 40.148438 -29.089844 41.988281 -33.035156 C 43.152344 -22.945312 46.433594 -16.964844 51.800781 -15.535156 C 59.117188 -13.402344 68.289062 -20.164062 79.347656 -35.386719 C 80.261719 -36.628906 79.96875 -38.351562 78.722656 -39.261719 Z M 78.722656 -39.261719 "/></g></g></g></svg>